<svg width="0" height="0" class="hidden">
  <symbol fill="none" xmlns="http://www.w3.org/2000/svg" viewBox="0 0 48 48" id="interior design">
    <path fill-rule="evenodd" clip-rule="evenodd" d="M42 6H21V12H9V24H6V42H9V27H21V42H24V9H39V42H42V6ZM12 15H21V24H12V15ZM12 30V33H18V30H12ZM15 18H18V21H15V18ZM30 18H27V21H30V18ZM27 30H30V33H27V30ZM30 36H27V39H30V36ZM27 12H30V15H27V12ZM30 24H27V27H30V24ZM33 12H36V15H33V12ZM36 24H33V27H36V24ZM33 18H36V21H33V18ZM36 30H33V33H36V30ZM33 36H36V39H33V36ZM18 39V36H12V39H18Z" fill="#996830"></path>
  </symbol>
  <symbol fill="none" xmlns="http://www.w3.org/2000/svg" viewBox="0 0 48 48" id="building renovation">
    <path fill-rule="evenodd" clip-rule="evenodd" d="M6 6H18.3825L29.7183 12.1832L28.2817 14.8168L17.6175 9H9V39H21V27H15V24H27V27H24V39H39V27H33V24H39V9H30V6H42V42H6V6Z" fill="#996830"></path>
  </symbol>
  <symbol fill="none" xmlns="http://www.w3.org/2000/svg" viewBox="0 0 48 48" id="construction">
    <path fill-rule="evenodd" clip-rule="evenodd" d="M31.9138 38.0338L41.84 3L7.40332 13.2143L16.0574 22.4865L18.2505 20.4395L12.9046 14.7117L37.4679 7.426L30.3941 32.3922L24.6965 26.8845L22.6114 29.0415L31.9138 38.0338ZM13.1856 25.8733L15.1539 27.8417L24.5933 18.4023L26.7146 20.5237L17.2753 29.963L19.2436 31.9314L9.18658 42.617L2.5 35.9304L13.1856 25.8733ZM13.1223 30.0527L6.8079 35.9956L9.12132 38.3091L15.0643 31.9947L13.1223 30.0527Z" fill="#996830"></path>
  </symbol>
</svg>