<svg width="20" height="20" viewBox="0 0 20 20" fill="none" xmlns="http://www.w3.org/2000/svg">
<path d="M19.58 5.04957C20 6.64957 20 9.98957 20 9.98957C20 9.98957 20 13.3296 19.58 14.9296C19.36 15.8096 18.68 16.5096 17.82 16.7496C16.26 17.1896 10 17.1896 10 17.1896C10 17.1896 3.74 17.1896 2.18 16.7496C1.32 16.5096 0.64 15.8096 0.42 14.9296C0 13.3296 0 9.98957 0 9.98957C0 9.98957 0 6.64957 0.42 5.04957C0.64 4.16957 1.32 3.46957 2.18 3.22957C3.74 2.80957 10 2.80957 10 2.80957C10 2.80957 16.26 2.80957 17.82 3.22957C18.68 3.46957 19.36 4.16957 19.58 5.04957ZM8.12 13.4296L13.12 10.3096L8.12 7.18957V13.4296Z" fill="#996830"/>
</svg>
